<svg xmlns="http://www.w3.org/2000/svg" viewBox="0 0 100 100" fill="none">
  <rect width="100" height="100" rx="24" fill="#041B3B" />
  <circle cx="50" cy="50" r="42" stroke="#22AC33" stroke-width="3" stroke-dasharray="6 3" stroke-opacity="0.4" />
  <!-- Garuda Crest / Clean Sparkle Emblem -->
  <path d="M50 16 L56 38 L78 44 L56 50 L50 72 L44 50 L22 44 L44 38 Z" fill="#22AC33" />
  <circle cx="50" cy="44" r="6" fill="#FFFFFF" />
  <!-- Sparkles -->
  <path d="M72 22 L75 30 L83 33 L75 36 L72 44 L69 36 L61 33 L69 30 Z" fill="#4ADE80" opacity="0.9" />
  <path d="M28 62 L30 68 L36 70 L30 72 L28 78 L26 72 L20 70 L26 68 Z" fill="#4ADE80" opacity="0.8" />
  <!-- Underline Accent -->
  <path d="M32 82 C44 86, 56 86, 68 82" stroke="#22AC33" stroke-width="4" stroke-linecap="round" />
</svg>